<mxfile host="app.diagrams.net" modified="2023-07-24T15:00:11.904Z" agent="Mozilla/5.0 (Windows NT 10.0; Win64; x64) AppleWebKit/537.36 (KHTML, like Gecko) Chrome/115.0.0.0 Safari/537.36 Edg/115.0.1901.183" version="21.6.5" etag="FQKWvievDnh-DQkLXtYO" type="github">
  <diagram name="PÃ¡gina-1" id="8ISmFH14hLOK5tKeOgb0">
    <mxGraphModel>
      <root>
        <mxCell id="0" />
        <mxCell id="1" parent="0" />
      </root>
    </mxGraphModel>
  </diagram>
</mxfile>
